<svg xmlns="http://www.w3.org/2000/svg" xmlns:xlink="http://www.w3.org/1999/xlink" zoomAndPan="magnify" preserveAspectRatio="xMidYMid meet" version="1.0" viewBox="134.61 248.37 526.77 234.79"><defs><g/></defs><g fill="#970747" fill-opacity="1"><g transform="translate(137.380918, 437.413181)"><g><path d="M 159.488281 -182.996094 C 170.710938 -180.878906 97.003906 19.273438 145.085938 33.886719 C 158.851562 35.371094 158.214844 28.804688 154.191406 28.382812 C 140.847656 26.898438 200.789062 -177.703125 163.511719 -188.503906 C 135.765625 -196.976562 102.9375 -103.359375 83.875 -40.453125 C 101.664062 -109.714844 96.15625 -149.320312 85.144531 -152.710938 C 69.046875 -157.582031 50.410156 -124.539062 31.980469 -36.007812 C 36.429688 -65.871094 36.640625 -120.304688 35.582031 -122.421875 C 29.441406 -135.128906 13.34375 -118.820312 13.132812 -111.621094 C 13.34375 -77.519531 7.625 -42.996094 -2.753906 29.015625 C -3.390625 32.195312 20.96875 40.667969 26.050781 14.402344 C 42.570312 -48.503906 58.667969 -147.203125 81.332031 -147.203125 C 92.769531 -147.203125 63.117188 -38.125 60.363281 -21.816406 C 58.667969 -12.285156 81.542969 -17.15625 85.355469 -28.167969 C 97.003906 -66.082031 132.375 -182.363281 159.488281 -182.996094 Z M 159.488281 -182.996094 "/></g></g></g><g fill="#970747" fill-opacity="1"><g transform="translate(315.702196, 448.4768)"><g><path d="M 16.375 34.6875 C 13.613281 34.6875 11.035156 34.445312 8.640625 33.96875 C 6.242188 33.5 4.179688 32.847656 2.453125 32.015625 L 4.671875 22.453125 L 6 22.015625 C 7.1875 22.597656 8.664062 23.097656 10.4375 23.515625 C 12.21875 23.941406 14.050781 24.15625 15.9375 24.15625 C 19.238281 24.15625 21.976562 23.707031 24.15625 22.8125 C 26.332031 21.925781 28.195312 20.457031 29.75 18.40625 C 31.3125 16.363281 32.757812 13.539062 34.09375 9.9375 L 36.984375 1.921875 L 4.15625 -81.734375 L 17.1875 -81.734375 L 42.90625 -15.046875 L 44.3125 -15.046875 L 69.21875 -81.734375 L 81.59375 -81.734375 L 45.0625 12.8125 C 42.976562 18.050781 40.648438 22.265625 38.078125 25.453125 C 35.515625 28.640625 32.476562 30.972656 28.96875 32.453125 C 25.46875 33.941406 21.269531 34.6875 16.375 34.6875 Z M 16.375 34.6875 "/></g></g></g><g fill="#970747" fill-opacity="1"><g transform="translate(401.878728, 448.4768)"><g><path d="M 14.234375 0 L 14.234375 -81.734375 L 25.71875 -81.734375 L 25.71875 -68.921875 L 27.265625 -68.546875 C 29.984375 -73.335938 33.453125 -76.992188 37.671875 -79.515625 C 41.898438 -82.035156 47.050781 -83.296875 53.125 -83.296875 C 62.957031 -83.296875 70.082031 -80.785156 74.5 -75.765625 C 78.925781 -70.753906 81.140625 -63.035156 81.140625 -52.609375 L 81.140625 0 L 69.0625 0 L 69.0625 -52.3125 C 69.0625 -57.257812 68.429688 -61.222656 67.171875 -64.203125 C 65.910156 -67.191406 63.957031 -69.363281 61.3125 -70.71875 C 58.675781 -72.082031 55.207031 -72.765625 50.90625 -72.765625 C 43.550781 -72.765625 37.613281 -70.332031 33.09375 -65.46875 C 28.570312 -60.601562 26.3125 -52.757812 26.3125 -41.9375 L 26.3125 0 Z M 14.234375 0 "/></g></g></g><g fill="#970747" fill-opacity="1"><g transform="translate(495.983801, 448.4768)"><g><path d="M 42.390625 1.5625 C 35.816406 1.5625 30.019531 -0.00390625 25 -3.140625 C 19.988281 -6.285156 16.0625 -11.019531 13.21875 -17.34375 C 10.382812 -23.664062 8.96875 -31.492188 8.96875 -40.828125 C 8.96875 -50.171875 10.445312 -58.015625 13.40625 -64.359375 C 16.375 -70.703125 20.460938 -75.441406 25.671875 -78.578125 C 30.890625 -81.722656 36.929688 -83.296875 43.796875 -83.296875 C 49.234375 -83.296875 54.125 -82.269531 58.46875 -80.21875 C 62.8125 -78.164062 66.539062 -74.796875 69.65625 -70.109375 L 71.21875 -70.40625 L 71.21875 -114.5625 L 83.296875 -114.5625 L 83.296875 0 L 71.21875 0 L 71.21875 -11.9375 L 69.65625 -12.234375 C 66.988281 -8.179688 63.367188 -4.867188 58.796875 -2.296875 C 54.234375 0.273438 48.765625 1.5625 42.390625 1.5625 Z M 46.171875 -9.265625 C 53.773438 -9.265625 59.847656 -11.867188 64.390625 -17.078125 C 68.941406 -22.296875 71.21875 -30.210938 71.21875 -40.828125 C 71.21875 -51.503906 68.941406 -59.445312 64.390625 -64.65625 C 59.847656 -69.863281 53.773438 -72.46875 46.171875 -72.46875 C 38.316406 -72.46875 32.265625 -69.921875 28.015625 -64.828125 C 23.765625 -59.742188 21.640625 -51.742188 21.640625 -40.828125 C 21.640625 -19.785156 29.816406 -9.265625 46.171875 -9.265625 Z M 46.171875 -9.265625 "/></g></g></g><g fill="#970747" fill-opacity="1"><g transform="translate(593.571489, 448.4768)"><g><path d="M 37.28125 1.5625 C 32.132812 1.5625 27.375 0.882812 23 -0.46875 C 18.632812 -1.832031 14.941406 -3.703125 11.921875 -6.078125 C 8.910156 -8.453125 6.789062 -11.117188 5.5625 -14.078125 L 12.671875 -21.484375 L 14.234375 -21.484375 C 16.898438 -17.429688 20.109375 -14.378906 23.859375 -12.328125 C 27.617188 -10.285156 32.09375 -9.265625 37.28125 -9.265625 C 43.300781 -9.265625 47.878906 -10.4375 51.015625 -12.78125 C 54.148438 -15.125 55.71875 -18.398438 55.71875 -22.609375 C 55.71875 -25.816406 54.765625 -28.46875 52.859375 -30.5625 C 50.960938 -32.664062 47.890625 -34.238281 43.640625 -35.28125 L 29.859375 -38.6875 C 22.503906 -40.457031 17.132812 -43.269531 13.75 -47.125 C 10.363281 -50.976562 8.671875 -55.75 8.671875 -61.4375 C 8.671875 -65.882812 9.804688 -69.75 12.078125 -73.03125 C 14.347656 -76.3125 17.617188 -78.84375 21.890625 -80.625 C 26.171875 -82.40625 31.25 -83.296875 37.125 -83.296875 C 44.632812 -83.296875 50.550781 -82.242188 54.875 -80.140625 C 59.195312 -78.046875 62.566406 -75.117188 64.984375 -71.359375 L 58.171875 -64.6875 L 56.6875 -64.6875 C 54.070312 -67.707031 51.21875 -69.882812 48.125 -71.21875 C 45.039062 -72.550781 41.375 -73.21875 37.125 -73.21875 C 31.738281 -73.21875 27.613281 -72.253906 24.75 -70.328125 C 21.882812 -68.398438 20.453125 -65.609375 20.453125 -61.953125 C 20.453125 -58.640625 21.460938 -55.96875 23.484375 -53.9375 C 25.515625 -51.914062 29.050781 -50.289062 34.09375 -49.0625 L 47.65625 -45.796875 C 54.757812 -44.117188 59.894531 -41.328125 63.0625 -37.421875 C 66.226562 -33.515625 67.8125 -28.625 67.8125 -22.75 C 67.8125 -17.957031 66.671875 -13.734375 64.390625 -10.078125 C 62.117188 -6.421875 58.6875 -3.566406 54.09375 -1.515625 C 49.5 0.535156 43.894531 1.5625 37.28125 1.5625 Z M 37.28125 1.5625 "/></g></g></g></svg>